<svg width="45" height="26" viewBox="0 0 45 26" fill="none" xmlns="http://www.w3.org/2000/svg">
<path fill-rule="evenodd" clip-rule="evenodd" d="M26.6853 21.6667L31.0187 26L38.8871 18.1315L34.5537 13.798L31.0187 17.3331L30.2207 16.5352C26.0679 12.3825 26.5045 12.8194 22.352 8.66648V8.6668L18.8654 5.18022C14.5644 0.879297 7.52665 0.879297 3.22573 5.18022V5.18039C-1.07528 9.48131 -1.0752 16.5188 3.22573 20.82C7.52665 25.1209 14.5644 25.1209 18.8654 20.82L21.5539 18.1315L17.2205 13.798L14.532 16.4868C12.6146 18.4045 9.47661 18.4042 7.55905 16.4868C5.64148 14.569 5.64148 11.4312 7.55896 9.51354H7.55905C9.47661 7.59582 12.6146 7.59582 14.532 9.51354L18.0187 13.0001L22.3521 17.3334L25.8872 20.8685V20.8689L26.6853 21.6668V21.6667ZM39.6854 17.3334L44.0186 13L39.6851 8.66664L35.3521 12.9997L39.6855 17.3334H39.6854ZM38.8872 7.86865L31.0187 0L23.1503 7.86849L27.4836 12.2016L31.0188 8.66632L34.5541 12.2016L38.8874 7.86857L38.8872 7.86865Z" fill="url(#paint0_linear_484_2694)"/>
<defs>
<linearGradient id="paint0_linear_484_2694" x1="39.9539" y1="13.4709" x2="6.12081" y2="13.4711" gradientUnits="userSpaceOnUse">
<stop stop-color="#627EEA"/>
<stop offset="1" stop-color="#7CE9BB"/>
</linearGradient>
</defs>
</svg>
